<svg width="190" height="199" viewBox="0 0 190 199" fill="none" xmlns="http://www.w3.org/2000/svg">
<path d="M140.344 44.0567H126.844C126.758 39.3433 127.718 34.8067 129.724 30.4467C129.809 30.2615 129.837 30.0554 129.803 29.8555C129.769 29.6556 129.675 29.4713 129.534 29.3267C126.014 25.7 121.701 21.9733 116.594 18.1467C106.334 10.4667 97.4345 15.1767 89.3145 22.5667C81.7812 29.4267 74.5212 36.5733 67.5345 44.0067L47.8445 44.0567C55.4511 36.0567 63.2045 28.2 71.1045 20.4867C86.6745 5.27665 101.324 -8.01335 123.654 5.78665C130.334 9.91665 136.634 16.9467 143.994 23.7767C147.834 27.3367 146.914 30.7767 144.044 34.7167C142.038 37.4767 140.804 40.59 140.344 44.0567Z" fill="black"/>
<path d="M67.5345 44.0066L126.845 44.0566H140.345C164.205 44.4466 183.235 48.3266 188.325 75.3466C189.685 82.5533 190.118 91.5766 189.625 102.417C189.405 107.177 187.985 110.627 182.845 110.817C163.475 111.527 163.075 138.897 181.675 140.867C186.005 141.327 189.445 142.457 189.735 147.017C190.405 157.637 188.745 172.857 183.595 181.737C175.365 195.927 158.885 198.427 143.595 198.477C111.681 198.563 79.7645 198.603 47.8445 198.597C20.8245 198.597 2.88452 190.837 0.774517 161.027C0.121184 151.773 -0.118817 146.117 0.054516 144.057C0.454516 139.337 2.76785 136.8 6.99452 136.447C26.5045 134.827 27.0545 109.247 8.39452 106.377C3.48452 105.627 0.574517 104.947 0.284517 99.6666C-0.415483 86.8366 0.524517 69.8566 7.34452 59.5766C16.2445 46.1566 32.8745 44.4966 47.8445 44.0566L67.5345 44.0066ZM69.4545 184.777L83.0945 184.807C97.5279 184.88 118.131 184.857 144.905 184.737C157.485 184.687 171.075 182.237 174.095 167.837C175.088 163.09 175.625 158.72 175.705 154.727C175.711 154.511 175.647 154.298 175.523 154.122C175.398 153.945 175.22 153.813 175.015 153.747C147.215 144.807 146.905 106.197 175.165 98.0166C175.379 97.9542 175.566 97.8219 175.697 97.6407C175.827 97.4594 175.893 97.2397 175.885 97.0166C175.525 88.3566 175.805 80.2366 173.025 71.8566C167.945 56.4866 146.955 58.1766 133.755 58.1266C116.975 58.0733 100.148 58.0733 83.2745 58.1266L69.3845 58.1366C55.1445 57.9033 45.4012 58.0033 40.1545 58.4366C28.7145 59.3966 18.1145 62.1766 15.8545 75.3466C14.6612 82.2999 14.0812 88.0399 14.1145 92.5666C14.1169 92.7783 14.1857 92.984 14.3113 93.1545C14.437 93.3249 14.613 93.4516 14.8145 93.5166C42.7445 102.217 43.1745 140.607 14.6545 149.437C14.4458 149.5 14.2641 149.632 14.1375 149.811C14.0109 149.99 13.9466 150.206 13.9545 150.427C14.5645 169.507 16.1745 182.567 38.8145 184.187C49.0945 184.92 59.3079 185.117 69.4545 184.777Z" fill="black"/>
<path d="M69.3846 58.1367L83.2746 58.1267C83.5546 80.8267 83.468 94.4634 83.0146 99.0367C82.2046 107.227 69.4746 107.237 69.2746 96.9067C69.048 85.3 69.0013 73.6934 69.1346 62.0867C69.1413 61.74 69.218 61.0867 69.3646 60.1267C69.4646 59.46 69.4713 58.7967 69.3846 58.1367Z" fill="black"/>
<path d="M83.0946 184.807L69.4546 184.777C68.7879 167.03 68.7346 153.387 69.2946 143.847C69.7246 136.417 82.7446 135.127 83.0846 145.607C83.5046 158.673 83.5079 171.74 83.0946 184.807Z" fill="black"/>
</svg>
